<?xml version="1.0" encoding="utf-8"?>
<!-- Generator: Adobe Illustrator 16.0.0, SVG Export Plug-In . SVG Version: 6.00 Build 0)  -->
<!DOCTYPE svg PUBLIC "-//W3C//DTD SVG 1.1//EN" "http://www.w3.org/Graphics/SVG/1.1/DTD/svg11.dtd">
<svg version="1.1" id="Layer_3" xmlns="http://www.w3.org/2000/svg" xmlns:xlink="http://www.w3.org/1999/xlink" x="0px" y="0px"
	 width="589.471px" height="373.481px" viewBox="0 0 589.471 373.481" enable-background="new 0 0 589.471 373.481"
	 xml:space="preserve">
<path fill="none" stroke="#000000" stroke-width="2.75" stroke-miterlimit="10" d="M13.562,320.422
	c9.598-0.218,19.196-0.436,28.793-0.654c3.897-0.089,7.103,1.163,10.886,2.281c8.22,2.429,16.026,4.779,23.582,8.917
	c7.645,4.187,15.516,7.95,23.971,10.363c12.167,3.471,29.004,0.731,38.93-7.21c-13.778-0.89-27.5-1.909-41.249-3.159
	c-2.382-0.217-4.49-0.125-6.587-1.293c-7.161-3.988-1.295-6.295,3.77-8.366c3.772-1.544,6.962-2.789,10.183-5.204
	c3.421-2.566,3.061-3.579,3.604-7.931c0.435-3.476,0.734-5.71-0.04-9.066c-1.228-5.32-1.037-5.473,0.734-10.345
	c2.344-6.447-4.287-5.915-3.578-11.588c0.445-3.56,7.292-9.41,2.936-12.586c-3.767-2.745-9.297-2.289-12.285-6.326
	c-3.602-4.868-5.443-12.646-7.071-18.385c-1.552-5.474-1.339-11.057-2.702-16.541c-1.979-7.961-5.812-15.624-11.156-21.86
	c1.778,1.776,8.89,1.115,11.161,1.229c6.022,0.298,12.019,0.414,18.037,0.845c11.406,0.814,22.773-0.577,33.976-2.651
	c6.959-1.29,10.681-3.637,1.571-6.312c-10.126-2.973-22.75-5.905-33.113-2.246c-2.174,0.768-4.182,2.016-6.4,2.648
	c-3.046,0.87-10.709,0.903-13.027,2.926c-5.421,4.733,6.268,8.143,8.964,8.774c10.098,2.364,20.145,3.216,30.365,1.544
	c5.418-0.886,11.694,0.283,16.711-2.262c3.642-1.848,7.03-4.271,10.336-6.656c-9.557,5.513-10.814,20.703-10.814,30.278
	c0,7.197,0.619,16.405-3.108,22.939c-2.63,4.611-8.665,7.846-12.889,10.724c-2.109,1.438-5.171,2.886-5.079,5.853
	c0.087,2.801,2.877,7.021,1.827,9.623c-0.845,2.095-4.574,4.702-2.232,6.902c3.025,2.842,3.406,7.326,2.103,11.195
	c-1.165,3.46-3.917,6.475-1.993,10.24c2.188,4.283,6.816,7.299,10.829,9.666c3.432,2.024,7.224,3.609,10.391,6.054
	c3.369,2.602,3.696,6.705,4.479,10.618c4.601,0,9.229-0.373,13.825-0.57c5.418-0.234,3.518-3.131,5.562-7.987
	c2.545-6.044,8.672-7.722,12.074-13.278c1.787-2.917,4.422-3.107,6.916-4.965c2.53-1.887,4.133-5.032,5.413-7.831
	c7.316-16.005,5.256-31.342,3.654-48.145c-0.673-7.054-1.996-13.762-4.734-20.332c-1.094-2.627-4.742-7.536-4.164-10.062
	c0.588-2.565,0.35-5.445,0.324-8.054c-0.044-4.691-1.09-10.433,0.06-15.032c1.84-7.363-10.384-12.309-9.107-20.184
	c0.78-4.808,2.399-7.49,7.628-8.237c3.775-0.539,2.953-0.75,3.196-4.541c1.643-25.595,1.242-50.223-1.074-75.718
	c-1.185-13.037-2.359-26.073-3.527-39.111c3.845,0.24,7.69,0.48,11.535,0.721c-12.166-11.729-4.483-32.077,2.884-43.976
	c1.442,1.441,5.768,15.86-0.721,38.93c0.721,0-9.372-3.604-3.604-17.302c2.883,2.163,4.326,12.256,4.326,21.628
	c1.315,1.315,4.117,1.012,5.768,0.721c1.037,22.256,2.104,44.512,3.271,66.762c0.486,9.265,0.581,18.695,1.694,27.914
	c0.665,5.508,3.695,10.611,2.457,16.382c-1.346,6.271-13.319,5.688-18.236,5.733c8.397,2.019,17.456,1.935,25.953,0.721
	c0,6.516,2.507,14.126-4.923,17.923c-4.939,2.523-19.857,3.889-23.914-1.342c6.68,6.965,18.783,11.894,26.675,3.604
	c-0.67,10.048-1.096,19.792-3.147,29.633c-3.618,17.361-8.203,35.311-6.564,53.149c0.879,9.571,2.261,19.881,6.088,28.781
	c1.843,4.289,5.455,7.344,8.929,10.337c3.046,2.623,6.447,3.455,5.869,7.506c-0.703,4.924-8.465,5.178-12.801,6.093
	c-10.693,2.255-22.974,3.073-32.978-2.128c7.571-5.047,20.126-3.064,28.682-4.421c6.104-0.967,12.141-3.181,17.952-5.213
	c3.97-1.387,11.603-2.985,14.137-6.787c2.918-4.377-0.228-14.138-0.63-18.849c-0.695-8.155,0.44-15.151,4.405-22.381
	c3.547-6.469,10.114-13.219,10.67-20.922c0.586-8.125-4.664-17.188-7.042-24.714c-1.975-6.247-3.603-12.597-3.097-19.197
	c0.258-3.373,1.162-6.676,0.259-10.038c-0.861-3.206-3.107-5.47-4.509-8.376c-2.788-5.783,3.573-11.281,8.876-9.967
	c4.683,1.16,9.269,2.812,14.169,2.635c-0.002,0,6.338-0.299,3.598-1.87c-3.594-2.06-15.258-1.681-15.461-5.918
	c-0.367-7.639-0.732-15.277-1.099-22.916c-0.915-19.077-1.829-38.154-2.744-57.23c-0.312-6.521-0.625-13.04-0.938-19.56
	c-0.27-5.628,1.923-4.193,7.747-5.252c-1.623-6.056-2.739-12.405-2.739-18.685c0-8.512,4.61-16.038,4.902-24.571
	c8.673,11.248,13.154,27.915,2.884,39.651c0,0.721-5.046-11.535-2.163-20.186c0.721,2.163,4.325,8.651,1.442,24.511
	c5.136,0,5.731-1.163,5.874,3.686c0.168,5.688,0.348,11.376,0.545,17.063c0.378,10.912,0.93,21.815,1.314,32.726
	c0.632,17.978,1.145,35.961,1.64,53.943c5.634-0.512,7.861-2.131,10.227,3.284c3.419,7.829-1.757,12.403-9.506,13.297
	c0.166,0.165-2.967-0.188-3.147-0.222c-4.255-0.792-8.481-1.755-12.713-2.662c5.271,6.23,14.055,12.585,21.627,5.768
	c0.597,7.789,0.135,15.795-1.436,23.444c-0.557,2.713-1.277,5.396-2.218,8.003c-0.842,2.334-3.357,5.524-3.582,7.866
	c-0.42,4.383-1.176,8.729-1.56,13.12c-0.253,2.893-1.346,7.617,1.552,9.5c3.083,2.004,7.076,2.878,10.633,3.628
	c0.068,0.015,4.525-11.34,5.013-12.274c3.736-7.171,9.232-14.033,16.979-17.026c8.243-3.185,23.221-1.855,27.61,7.092
	c3.639,7.419-1.92,16.605-5.199,23.117c-4.312,8.562-11.931,25.425-4.538,33.74c-4.184,2.09-16.437-3.104-20.42-4.355
	c-7.492-2.354-21.122-6.341-23.557-15.109c-3.252-11.711-1.507-26.241,3.746-37.107c6.803-14.075,24.223-19.534,38.967-18.48
	c5.897,0.421,11.655,1.942,16.948,4.572c2.78,1.381,5.473,3.001,8.58,3.52c14.068,2.35,28.282-8.188,42.422-8.756
	c26.328-1.059,54.973,13.075,67.406,36.787c-10.521-2.065-21.38-4.016-32.124-4.09c-9.451-0.065-16.061,8.673-25.482,5.081
	c-15.131-5.769-26.722-23.54-44.618-20.579c-14.758,2.44-27.011,10.437-24.769,26.512c2.208,15.841,10.554,35.189,24.082,44.31
	c13.606,9.174,32.864,15.377,49.362,15.264c5.892-0.04,7.508-0.803,7.252-6.222c-0.478-10.162-0.814-20.843-3.447-30.718
	c-1.626-6.102-7.076-13.887-4.785-20.382c3.616-10.263,26.898-5.06,34.271-4.631c12.889,0.75,26.788,0.648,39.36,3.947
	c13.77,3.612,27.982,10.783,33.16,24.901c2.597,7.079,4.854,52.599-14.772,38.698c-0.667,0-1.526,8.212-1.684,8.91
	c-1.27,5.646-3.839,11.182-8.606,14.697c-5.05,3.723-12.426,5.424-18.299,7.685c-5.428,2.089-11.376-3.988-15.389-6.78
	c5.827,2.914,17.272-2.834,21.445-6.378c9.594-8.148,12.775-27.548,6.505-38.533c-2.367-4.149-6.673-6.244-11.012-7.771
	c-6.959-2.45-14.657-5.537-22.013-6.156c-17.332-1.459-29.731,13.281-26.205,30.188c1.994,9.556,10.091,15.163,13.973,23.689
	c5.395,11.85-30.391,7.581-34.682,7.517c-14.094-0.216-33.342,2.732-44.877-6.72c-4.254-3.487-11.533-9.257-6.882-15.264
	c1.658-2.142,6.198-4.511,6.589-7.45c0.213-1.598-4.244-2.265-5.213-2.68c-6.168-2.644-8.271,12.428-12.036,14.696
	c-6.664,4.015-18.938,5.182-25.452,0.443c-13.225-9.62-5.827-30.922,9.372-32.442c-5.597-5.597-16.561-4.854-21.141,1.631
	c-5.064,7.17-5.188,13.713-14.733,16.81c-6.167,2.001-13.261,4.053-19.704,2.117c-8.523-2.562-11.31-11.911-12.19-19.837
	c0-5.74,3.096-12.689,5.388-17.798c1.425-3.175,3.155-6.651,5.898-8.907c1.053-0.866,6.818-5.332,8.354-4.621
	c0.854,0.394-5.562,9.421-6.52,11.119c-2.071,3.672-3.678,7.646-4.463,11.799c-2.349,12.416,4.288,22.909,14.324,29.762
	c15.867,10.833,36.714,16.097,54.855,22.006c11.156,3.634,22.717,6.706,33.308,11.844c12.697,6.16,27.036,7.49,40.972,8.42
	c16.771,1.117,34.021,1.434,50.721-0.775c21.54-2.849,81.44-14.451,60.663-49.512c-2.19-0.876-2.983,7.738-2.894,8.63
	c0.774,7.653,8.741,10.839,15.37,11.937c11.62,1.922,24.806,1.147,36.466-0.546c2.802-0.407,5.936-0.808,8.371-2.356"/>
</svg>
